<svg xmlns="http://www.w3.org/2000/svg" width="24.715" height="16.508" viewBox="0 0 24.715 16.508">
  <path id="menu_bar_icon_device_s" data-name="menu bar_icon_device_s" d="M4.1,3.552V14.9h10.33v3.089H0V14.9H2.075V3.552a2,2,0,0,1,.6-1.473,1.946,1.946,0,0,1,1.424-.6H22.639V3.552ZM23.7,5.628a1.008,1.008,0,0,1,.7.29.945.945,0,0,1,.314.724V16.923a1.022,1.022,0,0,1-.314.748.968.968,0,0,1-.7.313H17.522a1.07,1.07,0,0,1-1.061-1.061V6.642a.945.945,0,0,1,.314-.724,1.065,1.065,0,0,1,.748-.29H23.7ZM22.639,14.9V7.656h-4.1V14.9h4.1Z" transform="translate(0 -1.477)" fill="#5ea7e8"/>
</svg>
