<svg xmlns="http://www.w3.org/2000/svg" width="22.036" height="29.343" viewBox="0 0 22.036 29.343">
  <path id="menu_bar_icon_baby_data_n" data-name="menu bar_icon_baby data_n" d="M21.534,17.838a1.642,1.642,0,0,1-1.2.5,1.664,1.664,0,0,1-1.218-.516L14.7,13.382v4.957H7.364V13.382L2.923,17.823a1.665,1.665,0,0,1-1.218.516,1.643,1.643,0,0,1-1.2-.5,1.73,1.73,0,0,1-.014-2.422L4.614,11q1.834-1.834,6.419-1.834T17.451,11l4.1,4.413a1.635,1.635,0,0,1,.487,1.2,1.658,1.658,0,0,1-.5,1.218ZM11.018,7.336A3.55,3.55,0,0,1,8.411,6.261,3.537,3.537,0,0,1,7.336,3.668,3.53,3.53,0,0,1,8.41,1.074,3.552,3.552,0,0,1,11.017,0a3.552,3.552,0,0,1,2.607,1.074A3.533,3.533,0,0,1,14.7,3.668a3.534,3.534,0,0,1-1.074,2.594A3.55,3.55,0,0,1,11.018,7.336ZM2.35,22.494q.086-.057.372-.229L6.1,19.4l3.582,2.579L6.476,24.1l2.178,2.206a1.7,1.7,0,0,1,.516,1.246,1.747,1.747,0,0,1-.516,1.261,1.689,1.689,0,0,1-1.261.53,1.719,1.719,0,0,1-1.261-.516L2.35,25.044a1.834,1.834,0,0,1,0-2.55Zm11.032,3.811L15.56,24.1l-3.21-2.121L15.932,19.4l3.381,2.866q.287.172.372.229a1.834,1.834,0,0,1,0,2.55L15.9,28.827a1.783,1.783,0,0,1-2.522-2.522Z" fill="#5ea7e8"/>
</svg>
