<svg id="menu_bar_icon_home_s" data-name="menu bar_icon_home_s" xmlns="http://www.w3.org/2000/svg" width="20" height="20" viewBox="0 0 20 20">
  <path id="Path_3" data-name="Path 3" d="M278.8,0h-4.219A2.581,2.581,0,0,0,272,2.578V6.8a2.581,2.581,0,0,0,2.578,2.578H278.8A2.581,2.581,0,0,0,281.375,6.8V2.578A2.581,2.581,0,0,0,278.8,0Zm1.328,6.8a.625.625,0,0,1-1.25,0V2.578A.078.078,0,0,0,278.8,2.5a.625.625,0,0,1,0-1.25,1.33,1.33,0,0,1,1.328,1.328Z" transform="translate(-261.375)" fill="#5ea7e8"/>
  <path id="Path_4" data-name="Path 4" d="M6.8,0H2.578A2.581,2.581,0,0,0,0,2.578V6.8A2.581,2.581,0,0,0,2.578,9.375H6.8A2.581,2.581,0,0,0,9.375,6.8V2.578A2.581,2.581,0,0,0,6.8,0ZM8.125,6.8a.625.625,0,0,1-1.25,0V2.578A.078.078,0,0,0,6.8,2.5a.625.625,0,0,1,0-1.25A1.33,1.33,0,0,1,8.125,2.578Z" fill="#5ea7e8"/>
  <path id="Path_5" data-name="Path 5" d="M6.8,272H2.578A2.581,2.581,0,0,0,0,274.578V278.8a2.581,2.581,0,0,0,2.578,2.578H6.8A2.581,2.581,0,0,0,9.375,278.8v-4.219A2.581,2.581,0,0,0,6.8,272Zm1.328,6.8a.625.625,0,0,1-1.25,0v-4.219A.078.078,0,0,0,6.8,274.5a.625.625,0,0,1,0-1.25,1.33,1.33,0,0,1,1.328,1.328Z" transform="translate(0 -261.375)" fill="#5ea7e8"/>
  <path id="Path_6" data-name="Path 6" d="M276.688,272a4.688,4.688,0,1,0,4.688,4.688A4.693,4.693,0,0,0,276.688,272Zm3.247,6.17a.625.625,0,1,1-1.133-.528,2.187,2.187,0,0,0-1.058-2.907.625.625,0,0,1,.528-1.133,3.437,3.437,0,0,1,1.663,4.568Z" transform="translate(-261.375 -261.375)" fill="#5ea7e8"/>
</svg>
