<svg xmlns="http://www.w3.org/2000/svg" width="15.377" height="20.503" viewBox="0 0 15.377 20.503">
  <g id="menu_bar_icon_sales_s" data-name="menu bar_icon_sales_s" transform="translate(-64)">
    <g id="Group_2" data-name="Group 2" transform="translate(67.508)">
      <g id="Group_1" data-name="Group 1">
        <path id="Path_7" data-name="Path 7" d="M167.665,1.394h-1.513a2.091,2.091,0,0,0-3.942,0H160.7a.7.7,0,0,0-.7.7V3.484a.7.7,0,0,0,.7.7h6.968a.7.7,0,0,0,.7-.7V2.09A.7.7,0,0,0,167.665,1.394Z" transform="translate(-160)" fill="#5ea7e8"/>
      </g>
    </g>
    <g id="Group_4" data-name="Group 4" transform="translate(64 2.787)">
      <g id="Group_3" data-name="Group 3">
        <path id="Path_8" data-name="Path 8" d="M78.1,64H76.814v.633a1.913,1.913,0,0,1-1.922,1.9H68.485a1.913,1.913,0,0,1-1.922-1.9V64H65.281A1.276,1.276,0,0,0,64,65.265V80.451a1.26,1.26,0,0,0,1.281,1.265H78.1a1.26,1.26,0,0,0,1.281-1.265V65.265A1.26,1.26,0,0,0,78.1,64Zm-5.767,3.861a3.191,3.191,0,0,1,2.5,2.466h-2.5Zm-1.281,0v3.1a.637.637,0,0,0,.641.633h3.138a3.2,3.2,0,1,1-3.779-3.732Zm1.281,11.324H67.2a.633.633,0,1,1,0-1.265h5.126a.633.633,0,1,1,0,1.265Zm3.844-2.531H67.2a.633.633,0,1,1,0-1.265h8.97a.633.633,0,1,1,0,1.265Z" transform="translate(-64 -64)" fill="#5ea7e8"/>
      </g>
    </g>
  </g>
</svg>
