<svg xmlns="http://www.w3.org/2000/svg" width="27.999" height="27.999" viewBox="0 0 27.999 27.999">
  <g id="common_icon_settings" transform="translate(0 0)">
    <path id="Path_17" data-name="Path 17" d="M180.741,176.016c-.121-.01-.242-.016-.366-.016a4.375,4.375,0,0,0,0,8.75c.124,0,.245-.005.362-.015a4.375,4.375,0,0,0,0-8.719Z" transform="translate(-166.375 -166.375)" fill="#5ea7e8"/>
    <path id="Path_18" data-name="Path 18" d="M27.1,11.835a3.042,3.042,0,0,0-2.165-.9h-.891a10.4,10.4,0,0,0-.777-1.875l.631-.631A3.062,3.062,0,0,0,19.568,4.1l-.631.631a10.407,10.407,0,0,0-1.875-.777V3.062a3.072,3.072,0,0,0-2.453-3A3.105,3.105,0,0,0,14,0a3.063,3.063,0,0,0-3.062,3.062v.891a10.4,10.4,0,0,0-1.875.777L8.431,4.1A3.063,3.063,0,0,0,4.1,8.431l.631.631a10.4,10.4,0,0,0-.777,1.875H3.062a3.062,3.062,0,0,0,0,6.125h.891a10.4,10.4,0,0,0,.777,1.875l-.631.631A3.062,3.062,0,0,0,8.431,23.9l.631-.631a10.4,10.4,0,0,0,1.875.777v.891A3.066,3.066,0,0,0,14,28a3.105,3.105,0,0,0,.61-.061h0a3.065,3.065,0,0,0,2.451-3v-.891a10.4,10.4,0,0,0,1.875-.777l.631.631A3.063,3.063,0,0,0,23.9,19.568l-.631-.631a10.4,10.4,0,0,0,.777-1.875h.891A3.062,3.062,0,0,0,27.1,11.835ZM18.5,18.159A6.1,6.1,0,0,1,14.509,20.1c-.163.014-.335.022-.509.022a6.125,6.125,0,1,1,0-12.25c.174,0,.347.007.513.022A6.125,6.125,0,0,1,18.5,18.159Z" transform="translate(0 0)" fill="#5ea7e8"/>
  </g>
</svg>
